<svg width="34" height="34" viewBox="0 0 34 34" fill="none" xmlns="http://www.w3.org/2000/svg">
<path d="M17 2.83331C14.3699 2.83331 11.8476 3.8781 9.98784 5.73784C8.1281 7.59757 7.08332 10.1199 7.08332 12.75V17.748C7.08352 17.9677 7.0326 18.1845 6.93457 18.3812L4.50215 23.2446C4.38333 23.4823 4.32722 23.7463 4.33916 24.0117C4.3511 24.2771 4.43068 24.535 4.57035 24.761C4.71003 24.9869 4.90515 25.1735 5.13719 25.3028C5.36924 25.4321 5.63049 25.5 5.89615 25.5H28.1038C28.3695 25.5 28.6307 25.4321 28.8628 25.3028C29.0948 25.1735 29.2899 24.9869 29.4296 24.761C29.5693 24.535 29.6489 24.2771 29.6608 24.0117C29.6727 23.7463 29.6166 23.4823 29.4978 23.2446L27.0668 18.3812C26.9683 18.1847 26.9169 17.9679 26.9166 17.748V12.75C26.9166 10.1199 25.8719 7.59757 24.0121 5.73784C22.1524 3.8781 19.63 2.83331 17 2.83331ZM17 29.75C16.1208 29.7502 15.2631 29.4779 14.5451 28.9705C13.8271 28.4631 13.2841 27.7455 12.9908 26.9166H21.0091C20.7159 27.7455 20.1729 28.4631 19.4549 28.9705C18.7369 29.4779 17.8792 29.7502 17 29.75Z" fill="black"/>
</svg>
