<svg width="31" height="26" viewBox="0 0 31 26" fill="none" xmlns="http://www.w3.org/2000/svg">
<path d="M4.2401 14.4375V18.5354C4.2401 19.6 4.82344 20.5917 5.75677 21.1021L13.0484 25.0833C13.9234 25.5646 14.9734 25.5646 15.8484 25.0833L23.1401 21.1021C24.0734 20.5917 24.6568 19.6 24.6568 18.5354V14.4375L15.8484 19.25C14.9734 19.7313 13.9234 19.7313 13.0484 19.25L4.2401 14.4375ZM13.0484 0.35L0.754687 7.05833C-0.251563 7.6125 -0.251563 9.07083 0.754687 9.625L13.0484 16.3333C13.9234 16.8146 14.9734 16.8146 15.8484 16.3333L27.5734 9.93125V18.55C27.5734 19.3521 28.2297 20.0083 29.0318 20.0083C29.8339 20.0083 30.4901 19.3521 30.4901 18.55V9.20208C30.4901 8.6625 30.1984 8.18125 29.7318 7.91875L15.8484 0.35C15.4176 0.120203 14.9368 0 14.4484 0C13.9601 0 13.4793 0.120203 13.0484 0.35Z" fill="#FF5C5C"/>
</svg>
